<svg xmlns="http://www.w3.org/2000/svg" width="320" height="220" viewBox="0 0 320 220" fill="none">
  <rect width="320" height="220" rx="28" fill="#f3e8db"/>
  <rect x="26" y="26" width="268" height="168" rx="24" fill="#fff7ed"/>
  <path d="M112 146c0 20 16 34 48 34s48-14 48-34" stroke="#b8864b" stroke-width="6" stroke-linecap="round"/>
  <rect x="120" y="88" width="80" height="46" rx="14" fill="#2b1a14"/>
  <rect x="132" y="96" width="56" height="30" rx="10" fill="#4a2c1c"/>
  <path d="M206 94h10c10 0 18 8 18 18s-8 18-18 18h-10" stroke="#2b1a14" stroke-width="6" stroke-linecap="round"/>
  <path d="M138 70c0-10 8-18 18-18s18 8 18 18" stroke="#b8864b" stroke-width="6" stroke-linecap="round"/>
  <path d="M160 70c0-10 8-18 18-18s18 8 18 18" stroke="#b8864b" stroke-width="6" stroke-linecap="round"/>
</svg>
